<svg width="36" height="32" viewBox="0 0 36 32" fill="none" xmlns="http://www.w3.org/2000/svg">
<path d="M19.206 5.11199C18.9952 4.90135 18.7374 4.73444 18.45 4.62249C18.1627 4.51054 17.8525 4.45615 17.5402 4.46297C17.228 4.46979 16.921 4.53767 16.6398 4.66204C16.3586 4.78641 16.1099 4.96438 15.9102 5.18399L7.79167 14.1067V26C7.79167 26.5304 8.02214 27.0391 8.43238 27.4142C8.84261 27.7893 9.39901 28 9.97917 28H12.5896C13.1697 28 13.7261 27.7893 14.1364 27.4142C14.5466 27.0391 14.7771 26.5304 14.7771 26V21.9853C14.7771 21.4549 15.0076 20.9462 15.4178 20.5711C15.828 20.196 16.3844 19.9853 16.9646 19.9853H19.0354C19.6156 19.9853 20.172 20.196 20.5822 20.5711C20.9925 20.9462 21.2229 21.4549 21.2229 21.9853V26C21.2229 26.5304 21.4534 27.0391 21.8636 27.4142C22.2739 27.7893 22.8303 28 23.4104 28H26.0208C26.601 28 27.1574 27.7893 27.5676 27.4142C27.9779 27.0391 28.2083 26.5304 28.2083 26V14.1067L19.206 5.11199Z" fill="#717171" fill-opacity="0.5"/>
</svg>
