<svg width="43" height="39" viewBox="0 0 43 39" fill="none" xmlns="http://www.w3.org/2000/svg">
<rect x="0.608711" width="42.3913" height="39" rx="19.5" fill="#717171" fill-opacity="0.12"/>
<path d="M17.3418 6.75827C18.6385 6.57958 19.7289 7.37296 20.2448 8.40417L21.5138 10.9416C22.2179 12.3497 21.8133 14.0019 20.7463 15.0413C20.1158 15.6547 19.4823 16.3556 19.1148 16.9741C19.0904 17.0181 19.0828 17.0695 19.0934 17.1188C19.4332 18.9597 20.6808 20.7786 21.7938 22.0829C21.8499 22.1449 21.923 22.189 22.004 22.2099C22.0849 22.2309 22.1702 22.2276 22.2493 22.2005L24.7503 21.4191C25.424 21.2085 26.1474 21.2193 26.8145 21.4498C27.4816 21.6804 28.0574 22.1185 28.4573 22.7001L30.2674 25.3332C30.7582 26.0473 31.0067 27.0162 30.6305 27.948C30.2945 28.7804 29.6446 29.9808 28.4624 30.7792C27.2355 31.6072 25.555 31.9218 23.356 31.1681C20.8991 30.325 18.5781 28.211 16.6535 25.5074C14.7176 22.7869 13.1239 19.3888 12.1575 15.8453C11.2439 12.5 11.7951 10.2476 13.0924 8.7974C14.3438 7.39813 16.137 6.92374 17.3418 6.75827ZM18.8374 9.10758C18.5498 8.53315 18.0371 8.24939 17.5557 8.31546C16.4855 8.46268 15.1454 8.86094 14.2652 9.84559C13.4309 10.7786 12.8534 12.422 13.6738 15.4313C14.5955 18.8087 16.1131 22.0363 17.9345 24.5952C19.7673 27.1703 21.8498 28.9886 23.8657 29.6801C25.6619 30.296 26.8165 29.9915 27.5815 29.4756C28.3906 28.9289 28.8883 28.06 29.1714 27.3591C29.301 27.0382 29.245 26.623 28.9707 26.2241L27.1606 23.5916C26.9512 23.287 26.6496 23.0574 26.3002 22.9366C25.9508 22.8158 25.5719 22.8101 25.219 22.9203L22.7181 23.7017C21.9706 23.9352 21.1288 23.7269 20.5971 23.104C19.4388 21.7469 17.9628 19.6656 17.5457 17.4038C17.466 16.9799 17.5429 16.5415 17.7621 16.17C18.239 15.3684 18.994 14.5511 19.6477 13.9144C20.2863 13.2928 20.4675 12.3679 20.1064 11.645L18.8374 9.10758Z" fill="#0FB259"/>
</svg>
