<svg width="79" height="51" viewBox="0 0 79 51" fill="none" xmlns="http://www.w3.org/2000/svg">
<path d="M52.5 13.5V18.5C52.5 19.0304 52.2893 19.5391 51.9142 19.9142C51.5391 20.2893 51.0304 20.5 50.5 20.5H44V27C44 27.5304 43.7893 28.0391 43.4142 28.4142C43.0391 28.7893 42.5304 29 42 29H37C36.4696 29 35.9609 28.7893 35.5858 28.4142C35.2107 28.0391 35 27.5304 35 27V20.5H28.5C27.9696 20.5 27.4609 20.2893 27.0858 19.9142C26.7107 19.5391 26.5 19.0304 26.5 18.5V13.5C26.5 12.9696 26.7107 12.4609 27.0858 12.0858C27.4609 11.7107 27.9696 11.5 28.5 11.5H35V5C35 4.46957 35.2107 3.96086 35.5858 3.58579C35.9609 3.21071 36.4696 3 37 3H42C42.5304 3 43.0391 3.21071 43.4142 3.58579C43.7893 3.96086 44 4.46957 44 5V11.5H50.5C51.0304 11.5 51.5391 11.7107 51.9142 12.0858C52.2893 12.4609 52.5 12.9696 52.5 13.5Z" fill="#CC1100"/>
<path d="M1.183 46V36.796H6.968V37.966H2.431V40.852H6.656V42.022H2.431V46H1.183ZM8.43984 46V39.838H9.60984V46H8.43984ZM8.16684 37.628C8.16684 37.16 8.55684 36.77 9.02484 36.77C9.49284 36.77 9.88284 37.16 9.88284 37.628C9.88284 38.096 9.49284 38.486 9.02484 38.486C8.55684 38.486 8.16684 38.096 8.16684 37.628ZM11.4719 46V39.838H12.6419V40.787H12.6679C12.9669 40.137 13.7469 39.682 14.5139 39.682C14.6959 39.682 14.8779 39.708 15.0339 39.76L14.9819 41.021C14.7869 40.969 14.5919 40.93 14.4099 40.93C13.2659 40.93 12.6419 41.554 12.6419 42.906V46H11.4719ZM20.4694 40.696L19.5594 41.385C19.2864 41.047 18.8834 40.774 18.2984 40.774C17.7524 40.774 17.2714 41.021 17.2714 41.463C17.2714 42.204 18.3244 42.308 18.8444 42.425C19.8584 42.672 20.6384 43.062 20.6384 44.219C20.6384 45.61 19.3644 46.156 18.1424 46.156C17.1284 46.156 16.3744 45.896 15.7634 45.064L16.6474 44.336C17.0244 44.713 17.4664 45.064 18.1424 45.064C18.7404 45.064 19.3904 44.817 19.3904 44.284C19.3904 43.582 18.4154 43.452 17.9084 43.335C16.9074 43.088 16.0234 42.763 16.0234 41.58C16.0234 40.293 17.2064 39.682 18.3634 39.682C19.1824 39.682 20.0274 39.968 20.4694 40.696ZM25.3618 39.838V40.852H23.6848V43.647C23.6848 44.336 23.6848 45.064 24.5688 45.064C24.8418 45.064 25.1668 45.025 25.4008 44.882V45.948C25.1278 46.104 24.5818 46.156 24.3478 46.156C22.5408 46.156 22.5148 45.051 22.5148 44.063V40.852H21.1628V39.838H22.5148V38.109H23.6848V39.838H25.3618ZM31.2175 41.32L30.5155 40.592C31.1655 39.981 32.1015 39.682 32.9595 39.682C34.7795 39.682 35.5335 40.67 35.5335 41.736V44.882C35.5335 45.311 35.5465 45.675 35.5855 46H34.5455C34.5195 45.688 34.5065 45.376 34.5065 45.064H34.4805C33.9605 45.857 33.2585 46.156 32.3225 46.156C31.1785 46.156 30.1905 45.506 30.1905 44.31C30.1905 42.724 31.7115 42.178 33.5835 42.178H34.4415V41.918C34.4415 41.281 33.9735 40.618 32.9725 40.618C32.0755 40.618 31.6465 40.995 31.2175 41.32ZM34.4415 43.036H33.8175C32.7125 43.036 31.3605 43.231 31.3605 44.219C31.3605 44.921 31.8805 45.22 32.6865 45.22C33.9865 45.22 34.4415 44.258 34.4415 43.426V43.036ZM37.3217 46V39.838H38.4917V46H37.3217ZM37.0487 37.628C37.0487 37.16 37.4387 36.77 37.9067 36.77C38.3747 36.77 38.7647 37.16 38.7647 37.628C38.7647 38.096 38.3747 38.486 37.9067 38.486C37.4387 38.486 37.0487 38.096 37.0487 37.628ZM46.5287 36.172V46H45.3587V45.116H45.3327C44.8777 45.779 44.0197 46.156 43.1877 46.156C41.2767 46.156 40.0547 44.739 40.0547 42.919C40.0547 41.073 41.2897 39.682 43.1877 39.682C44.0717 39.682 44.9167 40.085 45.3327 40.722H45.3587V36.172H46.5287ZM43.3307 45.064C44.5787 45.064 45.3587 44.167 45.3587 42.919C45.3587 41.671 44.5787 40.774 43.3307 40.774C42.0827 40.774 41.3027 41.671 41.3027 42.919C41.3027 44.167 42.0827 45.064 43.3307 45.064ZM52.487 40.696L51.577 41.385C51.304 41.047 50.901 40.774 50.316 40.774C49.77 40.774 49.289 41.021 49.289 41.463C49.289 42.204 50.342 42.308 50.862 42.425C51.876 42.672 52.656 43.062 52.656 44.219C52.656 45.61 51.382 46.156 50.16 46.156C49.146 46.156 48.392 45.896 47.781 45.064L48.665 44.336C49.042 44.713 49.484 45.064 50.16 45.064C50.758 45.064 51.408 44.817 51.408 44.284C51.408 43.582 50.433 43.452 49.926 43.335C48.925 43.088 48.041 42.763 48.041 41.58C48.041 40.293 49.224 39.682 50.381 39.682C51.2 39.682 52.045 39.968 52.487 40.696ZM60.9975 39.838V40.852H59.3205V43.647C59.3205 44.336 59.3205 45.064 60.2045 45.064C60.4775 45.064 60.8025 45.025 61.0365 44.882V45.948C60.7635 46.104 60.2175 46.156 59.9835 46.156C58.1765 46.156 58.1505 45.051 58.1505 44.063V40.852H56.7985V39.838H58.1505V38.109H59.3205V39.838H60.9975ZM62.598 46V39.838H63.768V46H62.598ZM62.325 37.628C62.325 37.16 62.715 36.77 63.183 36.77C63.651 36.77 64.041 37.16 64.041 37.628C64.041 38.096 63.651 38.486 63.183 38.486C62.715 38.486 62.325 38.096 62.325 37.628ZM65.6301 49.666V39.838H66.8001V40.722H66.8261C67.2811 40.059 68.1391 39.682 68.9711 39.682C70.8821 39.682 72.1041 41.099 72.1041 42.919C72.1041 44.765 70.8691 46.156 68.9711 46.156C68.0871 46.156 67.2421 45.753 66.8261 45.116H66.8001V49.666H65.6301ZM68.8281 40.774C67.5801 40.774 66.8001 41.671 66.8001 42.919C66.8001 44.167 67.5801 45.064 68.8281 45.064C70.0761 45.064 70.8561 44.167 70.8561 42.919C70.8561 41.671 70.0761 40.774 68.8281 40.774ZM77.7634 40.696L76.8534 41.385C76.5804 41.047 76.1774 40.774 75.5924 40.774C75.0464 40.774 74.5654 41.021 74.5654 41.463C74.5654 42.204 75.6184 42.308 76.1384 42.425C77.1524 42.672 77.9324 43.062 77.9324 44.219C77.9324 45.61 76.6584 46.156 75.4364 46.156C74.4224 46.156 73.6684 45.896 73.0574 45.064L73.9414 44.336C74.3184 44.713 74.7604 45.064 75.4364 45.064C76.0344 45.064 76.6844 44.817 76.6844 44.284C76.6844 43.582 75.7094 43.452 75.2024 43.335C74.2014 43.088 73.3174 42.763 73.3174 41.58C73.3174 40.293 74.5004 39.682 75.6574 39.682C76.4764 39.682 77.3214 39.968 77.7634 40.696Z" fill="#CC1100"/>
</svg>
