<svg width="49" height="51" viewBox="0 0 49 51" fill="none" xmlns="http://www.w3.org/2000/svg">
<path d="M24.5 12C20.3 12 16.5 15.2133 16.5 20.2C16.5 23.52 19.1667 27.4533 24.5 32C29.8333 27.4533 32.5 23.52 32.5 20.2C32.5 15.2133 28.7 12 24.5 12ZM24.5 22C23.3933 22 22.5 21.1067 22.5 20C22.5 18.8933 23.3933 18 24.5 18C25.6067 18 26.5 18.8933 26.5 20C26.5 21.1067 25.6067 22 24.5 22ZM24.5 5.33333C27.0733 5.33333 29.4067 6.37333 31.1 8.06667L29.22 9.94667C27.9655 8.69994 26.2687 8.00019 24.5 8.00019C22.7313 8.00019 21.0345 8.69994 19.78 9.94667L17.9 8.06667C18.7657 7.19859 19.7945 6.51021 20.9271 6.04113C22.0598 5.57204 23.274 5.3315 24.5 5.33333ZM34.8733 4.30667L32.9933 6.18667C30.82 4.01333 27.82 2.66667 24.5133 2.66667C21.2067 2.66667 18.1933 4.01333 16.02 6.17333L14.1267 4.29333C16.7933 1.64 20.46 0 24.5133 0C28.5667 0 32.22 1.64 34.8733 4.30667Z" fill="#CC1100"/>
<path d="M1.183 46V36.796H2.431V40.618H7.202V36.796H8.45V46H7.202V41.788H2.431V46H1.183ZM11.4687 42.919C11.4687 44.167 12.2487 45.064 13.4967 45.064C14.7447 45.064 15.5247 44.167 15.5247 42.919C15.5247 41.671 14.7447 40.774 13.4967 40.774C12.2487 40.774 11.4687 41.671 11.4687 42.919ZM10.2207 42.919C10.2207 41.125 11.6637 39.682 13.4967 39.682C15.3297 39.682 16.7727 41.125 16.7727 42.919C16.7727 44.713 15.3297 46.156 13.4967 46.156C11.6637 46.156 10.2207 44.713 10.2207 42.919ZM21.5405 39.838V40.852H19.8635V43.647C19.8635 44.336 19.8635 45.064 20.7475 45.064C21.0205 45.064 21.3455 45.025 21.5795 44.882V45.948C21.3065 46.104 20.7605 46.156 20.5265 46.156C18.7195 46.156 18.6935 45.051 18.6935 44.063V40.852H17.3415V39.838H18.6935V38.109H19.8635V39.838H21.5405ZM23.141 46V36.172H24.311V46H23.141ZM26.2641 46V39.838H27.4341V46H26.2641ZM25.9911 37.628C25.9911 37.16 26.3811 36.77 26.8491 36.77C27.3171 36.77 27.7071 37.16 27.7071 37.628C27.7071 38.096 27.3171 38.486 26.8491 38.486C26.3811 38.486 25.9911 38.096 25.9911 37.628ZM29.2961 46V39.838H30.4661V40.787H30.4921C30.7911 40.137 31.5711 39.682 32.5201 39.682C33.7161 39.682 34.7561 40.397 34.7561 42.035V46H33.5861V42.36C33.5861 41.203 32.9231 40.774 32.1821 40.774C31.2071 40.774 30.4661 41.398 30.4661 42.828V46H29.2961ZM42.3437 43.348H37.4037C37.4037 44.427 38.4047 45.142 39.4837 45.142C40.1987 45.142 40.7187 44.778 41.1737 44.219L42.0577 44.895C41.4077 45.74 40.5107 46.156 39.3277 46.156C37.3777 46.156 36.1557 44.752 36.1557 42.919C36.1557 41.073 37.4947 39.682 39.3407 39.682C41.5117 39.682 42.3437 41.346 42.3437 42.932V43.348ZM37.4037 42.412H41.0957C41.0697 41.385 40.4977 40.618 39.3147 40.618C38.1577 40.618 37.4037 41.593 37.4037 42.412ZM47.9294 40.696L47.0194 41.385C46.7464 41.047 46.3434 40.774 45.7584 40.774C45.2124 40.774 44.7314 41.021 44.7314 41.463C44.7314 42.204 45.7844 42.308 46.3044 42.425C47.3184 42.672 48.0984 43.062 48.0984 44.219C48.0984 45.61 46.8244 46.156 45.6024 46.156C44.5884 46.156 43.8344 45.896 43.2234 45.064L44.1074 44.336C44.4844 44.713 44.9264 45.064 45.6024 45.064C46.2004 45.064 46.8504 44.817 46.8504 44.284C46.8504 43.582 45.8754 43.452 45.3684 43.335C44.3674 43.088 43.4834 42.763 43.4834 41.58C43.4834 40.293 44.6664 39.682 45.8234 39.682C46.6424 39.682 47.4874 39.968 47.9294 40.696Z" fill="#CC1100"/>
</svg>
