<svg width="33" height="32" viewBox="0 0 33 32" fill="none" xmlns="http://www.w3.org/2000/svg">
<path d="M16.5 12C12.3 12 8.5 15.2133 8.5 20.2C8.5 23.52 11.1667 27.4533 16.5 32C21.8333 27.4533 24.5 23.52 24.5 20.2C24.5 15.2133 20.7 12 16.5 12ZM16.5 22C15.3933 22 14.5 21.1067 14.5 20C14.5 18.8933 15.3933 18 16.5 18C17.6067 18 18.5 18.8933 18.5 20C18.5 21.1067 17.6067 22 16.5 22ZM16.5 5.33333C19.0733 5.33333 21.4067 6.37333 23.1 8.06667L21.22 9.94667C19.9655 8.69994 18.2687 8.00019 16.5 8.00019C14.7313 8.00019 13.0345 8.69994 11.78 9.94667L9.9 8.06667C10.7657 7.19859 11.7945 6.51021 12.9271 6.04113C14.0598 5.57204 15.274 5.3315 16.5 5.33333ZM26.8733 4.30667L24.9933 6.18667C22.82 4.01333 19.82 2.66667 16.5133 2.66667C13.2067 2.66667 10.1933 4.01333 8.02 6.17333L6.12667 4.29333C8.79333 1.64 12.46 0 16.5133 0C20.5667 0 24.22 1.64 26.8733 4.30667Z" fill="#CC1100"/>
</svg>
