<svg width="33" height="32" viewBox="0 0 33 32" fill="none" xmlns="http://www.w3.org/2000/svg">
<path d="M29.5 13.5V18.5C29.5 19.0304 29.2893 19.5391 28.9142 19.9142C28.5391 20.2893 28.0304 20.5 27.5 20.5H21V27C21 27.5304 20.7893 28.0391 20.4142 28.4142C20.0391 28.7893 19.5304 29 19 29H14C13.4696 29 12.9609 28.7893 12.5858 28.4142C12.2107 28.0391 12 27.5304 12 27V20.5H5.5C4.96957 20.5 4.46086 20.2893 4.08579 19.9142C3.71071 19.5391 3.5 19.0304 3.5 18.5V13.5C3.5 12.9696 3.71071 12.4609 4.08579 12.0858C4.46086 11.7107 4.96957 11.5 5.5 11.5H12V5C12 4.46957 12.2107 3.96086 12.5858 3.58579C12.9609 3.21071 13.4696 3 14 3H19C19.5304 3 20.0391 3.21071 20.4142 3.58579C20.7893 3.96086 21 4.46957 21 5V11.5H27.5C28.0304 11.5 28.5391 11.7107 28.9142 12.0858C29.2893 12.4609 29.5 12.9696 29.5 13.5Z" fill="#717171" fill-opacity="0.5"/>
</svg>
